<?xml version="1.0" encoding="utf-8"?>
<!-- Generator: Adobe Illustrator 25.2.0, SVG Export Plug-In . SVG Version: 6.00 Build 0)  -->
<svg version="1.1" id="Layer_1" xmlns="http://www.w3.org/2000/svg" xmlns:xlink="http://www.w3.org/1999/xlink" x="0px" y="0px"
	 viewBox="0 0 167.09 173.89" style="enable-background:new 0 0 167.09 173.89;" xml:space="preserve">
<style type="text/css">
	.st0{fill:#000000;}
	.st1{fill:#00000000;}
</style>
<g>
	<path class="st0" d="M162.25,90.95c-0.92,26.02-12.88,49.53-37.7,65.83c-14.93,9.8-31.55,13.57-49.38,11.96
		c-35.29-3.19-64.61-30.52-70.87-66.07c-4.47-25.38,1.36-48.34,17.84-68.23C34.94,18.99,51.46,9.75,71.38,6.79
		c31.89-4.75,63.82,10.89,80.26,40.12C158.73,59.51,162.14,73.09,162.25,90.95z M5.97,87.41C5.94,95.35,7.07,103,9.5,111.03
		c9.31,30.72,36.86,53.37,69.33,54.87c13.73,0.63,26.69-2.18,38.83-8.62c28.46-15.12,45.64-47.03,40.57-81.58
		c-2.81-19.15-11.63-35.21-26.18-48.03c-21.79-19.2-53.11-24-79.66-12.29C24.21,27.82,6.06,55.98,5.97,87.41z"/>
	<path class="st0" d="M78.16,109.21c-0.47-2.28-0.94-4.56-1.4-6.83c3.08-2.98,6.04-6.11,9.28-8.9c3.45-2.98,6.17-6.84,10.49-8.78
		c1.08,0.05,2.05-0.24,2.85-0.99c0.55,0.03,1.09,0.07,1.43-0.49c0.41,0.03,0.8,0.03,0.99-0.44c0.54,0.01,1.1,0.1,1.44-0.49
		c0.33-0.09,0.66-0.17,0.98-0.25c0.77,0.05,1.65,0.36,1.76,1.02c0.24,1.53,1.51,2.35,2.1,3.61c0.25,0.54,0.63,0.99,1.25,0.97
		c1.29-0.04,2.2,0.8,3.28,1.25c1.73,0.73,3.62,1.9,5.43,0c0.4-0.42,0.95-0.62,1.54-0.41c1.94,0.69,3.58-0.02,5.14-1.06
		c0.75-0.5,1.56-0.9,2.45-0.81c1.43,0.15,2.43-0.42,3.29-1.5c0.54-0.68,1.26-1.22,1.86-1.87c1.22-1.32,2.4-2.66,3.92-4.35
		c-3.37,0.17-5.93-0.94-8.49-1.96c-1.7-0.67-3.32-1.62-3.17-3.88c0.05-0.66-0.35-0.79-0.85-0.89c-0.43-0.09-0.97,0.21-1.29-0.32
		c1.16-2.68,1.03-2.81-1.14-5.04c-1.94-1.98-4.4-2.32-6.91-2.79c-1.73-0.32-2.8,1.22-4.37,1.21c-0.12,0-0.32,0.37-0.35,0.58
		c-0.22,1.78-1.56,2.87-2.52,4.2c-1.1,1.51-2.2,3.04-2.72,4.88c-0.28,0.14-0.63,0.21-0.83,0.43c-0.99,1.08-2.11,1.18-3.48,0.8
		c-1.53-0.42-3.13-0.57-4.7-0.86c-10.2-1.85-20.4-3.67-30.59-5.58c-2.48-0.46-5.02-0.69-7.68-1.6c1.23-0.51,2.34,0,3.26-0.62
		c-1.74,0.1-3.46-0.38-5.22,0.16c-0.87,0.27-1.88,0.18-2.84-0.03c-8.02-1.79-16.13-3.08-24.21-4.51c0.67-2.73,1.34-5.46,2.02-8.18
		c0.08-0.31,0.17-0.63,0.36-0.88c2.32-3.15,4.52-6.4,7.05-9.38c1.03-1.22,2.73-1.9,4.2-2.71c1.47-0.81,2.63-1.81,3.03-3.49
		c0.79-3.34,3.66-4.65,6.16-6.31c0.59-0.39,1.2-0.32,1.83-0.06c0.74,0.31,1.5,0.55,2.22,0.89c1.06,0.5,2.07,0.44,3.23,0.23
		c4-0.71,8.03-1.23,12.06-1.81c1.18-0.17,2.37-0.38,3.56-0.48c1.15-0.1,2.84,1.51,2.86,2.64c0.01,0.55-0.38,0.85-0.74,1.16
		c-0.67,0.56-1.36,1.1-1.99,1.61c0.02,0.9,0.77,0.82,1.21,1.01c4.26,1.81,8.53,3.59,12.8,5.36c1.74,0.72,1.75,0.69,2.8-0.94
		c2.09-3.22,2.08-3.2,5.67-1.95c2.62,0.91,5.15,2.26,8.08,1.75c0.56,0.39,1.75,0.06,1.52,1.35c-0.49,0.38-0.47,0.93-0.46,1.47
		c-0.63,0.4-0.96,0.91-0.75,1.76c0.65-0.53,0.78-1.12,0.72-1.78c0.61-0.34,0.49-0.92,0.47-1.46c0.66-0.16,0.82-0.78,1.14-1.25
		c1.28-0.04,2.55-0.14,3.83-0.11c1.51,0.03,1.67,0.22,1.71,1.65c0.01,0.32,0.01,0.65-0.06,0.96c-0.72,3.52,0.41,6.54,2.24,9.5
		c1.46,2.37,2.81,4.82,3.94,7.38c0.5,1.13,1.4,2.12,2.25,3.05c3.45,3.78,7,7.46,10.39,11.29c1.15,1.3,2.17,1.48,3.73,0.9
		c2.6-0.97,5.28-1.73,7.99-2.6c0.6,4.69-1.7,7.9-4.75,10.78c-0.8,0.26-1.84,0.1-2.16,1.21l0.03-0.02c-1.53-0.15-2.84,0.29-3.88,1.46
		l0.03-0.02c-0.83-0.04-1.62,0.02-1.95,0.98l0.03-0.02c-1-0.14-1.91-0.06-2.44,0.98l0.03-0.02c-0.58-0.1-1.15-0.15-1.48,0.5
		l0.03-0.02c-0.83-0.03-1.62,0.02-1.95,0.98l0.03-0.02c-1.53-0.14-2.77,0.49-3.88,1.46l0.03-0.02c-0.83-0.02-1.61,0.04-1.95,0.98
		l0.03-0.02c-0.58-0.1-1.16-0.18-1.48,0.5l0.03-0.02c-0.99-0.12-1.78,0.26-2.44,0.98l0.03-0.02c-0.83-0.02-1.61,0.05-1.95,0.98
		l0.03-0.02c-1.37-0.07-2.6,0.2-3.39,1.46l0.03-0.02c-1.53-0.13-2.77,0.47-3.88,1.46l0.03-0.02c-3.31,0.65-6.25,2.22-9.17,3.81
		c-0.82-0.04-1.52,0.16-1.95,0.93c-1.48-0.06-2.68,0.62-3.81,1.47c-2.07,0.44-4,1.22-5.76,2.4c-0.75-0.09-1.34,0.34-2,0.56
		C81.61,107.81,80.04,108.91,78.16,109.21z M99.32,66.88c-0.03-0.29-0.21-0.44-0.48-0.48c-0.19-0.42-0.54-0.52-0.96-0.47
		c0.01-0.33-0.19-0.45-0.48-0.48c-0.01-0.32-0.2-0.44-0.48-0.48c0.55-0.68,0.94-1.44,1.28-2.25c1.95-4.63,3.94-9.25,5.9-13.88
		c0.24-0.57,0.64-1.13,0.26-2.02c-0.17,0.27-0.33,0.44-0.42,0.65c-2.03,4.68-4.01,9.37-6.4,13.89c-1,1.89-1.19,2.06-3.28,1.31
		c-0.22-0.08-0.47-0.06-0.71-0.09c0.02-0.34-0.19-0.46-0.48-0.48c-0.02-0.61-0.41-0.86-0.95-0.96c-0.19-0.44-0.55-0.52-0.98-0.47
		c0.03-0.66-0.37-0.9-0.95-0.97c-0.03-0.3-0.21-0.44-0.48-0.48c-0.19-0.42-0.54-0.53-0.97-0.47c0.01-0.65-0.39-0.88-0.95-0.97
		c-0.03-0.29-0.21-0.44-0.48-0.48c-0.2-0.4-0.54-0.52-0.96-0.47c0.02-0.65-0.39-0.88-0.95-0.96c-0.05-0.27-0.22-0.43-0.48-0.49
		c-0.21-0.39-0.54-0.52-0.96-0.47c0-0.63-0.4-0.87-0.95-0.96c-0.06-0.27-0.23-0.42-0.48-0.49c-0.5-0.66-1.06-1.24-1.91-1.44
		c-0.19-0.43-0.54-0.54-0.97-0.47c0.04-0.67-0.39-0.89-0.95-0.97c-0.02-0.3-0.19-0.45-0.48-0.48c-0.19-0.42-0.54-0.53-0.97-0.47
		c0.03-0.66-0.39-0.89-0.95-0.97c-0.03-0.29-0.21-0.43-0.48-0.48c-0.48-0.69-1.04-1.27-1.92-1.44c-0.05-0.27-0.22-0.43-0.49-0.48
		c-0.49-0.67-1.05-1.26-1.91-1.44c-0.19-0.44-0.53-0.56-0.97-0.47c0.11-0.75-0.57-0.71-0.95-0.97c-0.02-0.3-0.19-0.45-0.48-0.48
		c-0.18-0.42-0.51-0.56-0.95-0.49c-0.04-0.12-0.08-0.23-0.12-0.35c-0.07,0.05-0.14,0.11-0.21,0.16c0.11,0.06,0.22,0.12,0.34,0.18
		c0.18,0.46,0.54,0.55,0.98,0.46c-0.03,0.35,0.16,0.48,0.48,0.48c0.21,0.43,0.31,0.96,0.95,0.96c0.18,0.45,0.53,0.56,0.97,0.47
		c0.18,1.08,0.85,1.53,1.91,1.44c-0.02,0.34,0.17,0.48,0.48,0.48c0.19,1.07,0.87,1.5,1.92,1.44C75.8,48.47,76,48.6,76.31,48.6
		c-0.01,0.64,0.37,0.9,0.95,0.96c0.18,0.45,0.53,0.56,0.97,0.48c-0.03,0.35,0.16,0.48,0.48,0.48c0.01,0.63,0.38,0.89,0.95,0.96
		c0.18,0.45,0.53,0.55,0.97,0.47c0.18,1.09,0.85,1.52,1.91,1.45c-0.02,0.34,0.18,0.47,0.48,0.48c-0.03,0.66,0.36,0.91,0.95,0.96
		c0.17,0.47,0.53,0.56,0.97,0.48c-0.02,0.35,0.17,0.47,0.48,0.48c-0.01,0.64,0.37,0.9,0.95,0.96c0.18,0.46,0.53,0.55,0.97,0.48
		c-0.03,0.35,0.17,0.48,0.48,0.48c0,0.64,0.38,0.89,0.95,0.96c0.19,0.43,0.53,0.55,0.97,0.48c-0.02,0.34,0.17,0.47,0.48,0.48
		c0.01,0.62,0.39,0.87,0.95,0.96c0.2,0.41,0.54,0.54,0.98,0.47c-0.03,0.66,0.36,0.92,0.95,0.97c0.04,0.28,0.2,0.44,0.48,0.49
		c0.25,0.56,0.5,1.11,0.79,1.76c-1.23,0.47-2.52-0.1-3.63,0.63c2.07,0,4.14,0,6.2,0c-0.01,0.33,0.17,0.47,0.48,0.48
		c0.03,0.29,0.2,0.44,0.48,0.48c0.19,0.43,0.53,0.54,0.96,0.47c-0.01,0.34,0.17,0.47,0.48,0.48c0.01,0.31,0.18,0.45,0.48,0.48
		c0.03,0.29,0.2,0.45,0.48,0.48c0.2,0.41,0.53,0.53,0.96,0.47c-0.01,0.33,0.17,0.47,0.48,0.48c0.01,0.31,0.18,0.46,0.48,0.48
		c0.03,0.07,0.04,0.15,0.09,0.21c0.03,0.03,0.15,0.03,0.15,0.02c0.03-0.15-0.07-0.21-0.28-0.2c0.01-0.33-0.18-0.45-0.48-0.48
		c-0.02-0.3-0.2-0.44-0.48-0.48c-0.19-0.43-0.54-0.52-0.96-0.47c0.02-0.34-0.18-0.46-0.48-0.48C99.79,67.04,99.61,66.91,99.32,66.88
		z M103.65,70.24c-0.09-0.09-0.03-0.49-0.32-0.15c0.12,0.04,0.24,0.08,0.36,0.12c0.03,0.17-0.04,0.48,0.31,0.23
		C103.87,70.36,103.76,70.3,103.65,70.24z M64.32,39c-0.02,0.21-0.07,0.46,0.28,0.26c-0.11-0.08-0.21-0.15-0.32-0.23
		c-0.18-0.38-0.5-0.52-0.89-0.55c-0.05-0.59-0.35-0.93-0.96-0.97c-0.24-0.38-0.57-0.52-1.01-0.42c0.03-0.67-0.37-0.91-0.96-0.96
		c-0.02-0.3-0.19-0.45-0.49-0.47c-0.43-0.75-1.03-1.29-1.91-1.45c-0.08-0.18-0.1-0.51-0.4-0.16c0.12,0.06,0.25,0.12,0.37,0.19
		c0.25,1.01,0.9,1.48,1.94,1.43c-0.02,0.34,0.16,0.48,0.47,0.49c0.01,0.64,0.41,0.87,0.97,0.95c0.13,0.42,0.48,0.53,0.86,0.59
		c0.09,0.58,0.4,0.92,1.02,0.89C63.52,39.02,63.88,39.1,64.32,39z M33.33,58.48c-1,0.33-2.06,0.59-2.76,1.49
		C31.69,59.86,32.62,59.39,33.33,58.48z M61.9,67.2c1.45,0,2.9,0,4.36,0C64.8,66.92,63.35,66.72,61.9,67.2z M73.46,66
		c0.01,0.07,0.03,0.14,0.04,0.21c1.39,0,2.78,0,4.17,0c0-0.07-0.01-0.14-0.01-0.21C76.26,66,74.86,66,73.46,66z M79.29,65.52
		c1.35,0.26,2.76,0.52,4.15,0C82.06,65.52,80.68,65.52,79.29,65.52z M67.75,66.46c1.38,0.32,2.79,0.51,4.17,0
		C70.53,66.46,69.14,66.46,67.75,66.46z M89.12,65.3c-1.17-0.26-2.45-0.5-3.72,0C86.64,65.3,87.88,65.3,89.12,65.3z M66.26,41.41
		c0.32-0.1,0.86,0.07,0.76-0.57c-0.02-0.15-0.32-0.34-0.51-0.38c-0.43-0.09-0.83,0.08-0.91,0.54C65.5,41.53,66,41.28,66.26,41.41z
		 M36.21,56.91l-0.1,0.14l0.18,0.02L36.21,56.91z M35.4,57.52c-0.05-0.04-0.09-0.12-0.14-0.12c-0.05,0-0.1,0.07-0.16,0.11
		c0.05,0.04,0.09,0.12,0.14,0.12C35.29,57.63,35.35,57.56,35.4,57.52z M34.45,58c-0.05-0.05-0.09-0.13-0.14-0.14
		c-0.05,0-0.11,0.07-0.16,0.11c0.05,0.05,0.09,0.13,0.14,0.13C34.34,58.1,34.4,58.03,34.45,58z"/>
	<path class="st0" d="M114.8,125.94c-0.93,0.81-1.29,1.76-0.86,2.98c0.23,0.67,0.32,1.4,0.46,2.1c0.43,2.15-0.17,3.75-2.05,4.86
		c-1.83,1.08-3.56,2.14-3.77,4.55c-0.07,0.78-0.72,1.22-1.24,1.7c-2.58,2.38-5.19,4.74-7.76,7.13c-0.74,0.68-1.54,1.04-2.56,1.12
		c-2.39,0.19-4.76,0.48-7.14,0.73c-2.06,0.21-3.59-1.04-3.58-3.08c0.01-1.29-0.43-2.31-1.18-3.29c-1.17-1.51-2.26-3.09-3.46-4.59
		c-0.79-0.99-1.24-2.02-1.04-3.31c0.06-0.39-0.03-0.82,0.07-1.19c0.89-3.24-0.29-5.93-2.13-8.47c-0.56-0.77-0.93-1.69-1.53-2.43
		c-1.43-1.79-1.47-3.74-1.05-5.88c0.37-1.89,0.63-3.78,2.15-5.18c0.68-0.63,0.59-1.43,0.43-2.23c0.85-0.12,1.55,0.33,2.28,0.62
		c9.16,3.65,18.33,7.3,27.47,11.01C110.49,123.98,112.83,124.56,114.8,125.94z"/>
	<path class="st0" d="M71.03,93.26c-0.01-1.54,0.52-2.98,0.8-4.46c0.37-1.94-0.76-3.59-2.75-3.9c-0.63-0.1-1.27-0.13-1.91-0.13
		c-1.63,0.01-2.95-0.3-3.38-2.22c-0.24-1.08-1.22-1.09-2.16-0.96c-2.61,0.36-5.22,0.7-7.83,1.05c0.51-4.11,1.66-8.1,2.48-12.15
		c0.16-0.81,0.6-1.17,1.56-0.94c1.55,0.38,3.14,0.55,4.71,0.83c10.43,1.89,20.87,3.76,31.29,5.72c2.22,0.42,4.53,0.6,6.88,1.53
		c-2.11,2.25-4.11,4.28-6.3,6.13c-1.03,0.87-1.96,1.82-3.31,2.3C84.39,88.41,77.72,90.85,71.03,93.26z"/>
	<path class="st0" d="M122.36,108.15c0.58,1.47,1.2,2.93,1.74,4.42c0.46,1.26-0.15,2.5-0.19,3.75c-0.09,3.25-1.44,5.53-4.49,6.81
		c-1.29,0.54-2.22,1.83-3.77,1.89c-0.22-0.37-0.6-0.49-0.97-0.64c-4.75-1.89-9.49-3.8-14.24-5.7c-2.22-0.89-2.23-0.88-1.51-3.07
		c1.53-4.62,3.07-9.24,4.61-13.86c0.52-1.55,0.67-1.65,2.19-0.98c2.41,1.06,4.76,2.28,7.2,3.27
		C116.11,105.35,119.03,107.23,122.36,108.15z"/>
	<path class="st0" d="M52.7,82.63c-3.58,0.83-7.23,1.17-10.87,1.61c-0.93,0.11-1.71-0.17-2.41-0.8c-2.03-1.8-4.08-3.58-6.13-5.35
		c-0.76-0.65-1.12-1.54-1.55-2.39c-0.76-1.49-1.51-2.99-2.26-4.49c0.21-0.75,0.76-0.88,1.46-0.94c4.19-0.37,8.37-0.79,12.56-1.1
		c2.12-0.15,4.3-0.1,6.37-0.57c1.58-0.35,2.99,0.14,4.48,0.25c0.7,0.05,0.93,0.54,0.84,1.18c-0.06,0.47-0.21,0.93-0.29,1.4
		C54.29,75.19,53,78.81,52.7,82.63z"/>
	<path class="st0" d="M138.05,85.57c-1.39,2.38-3.32,4.22-5.72,5.57c-1.48,0.83-2.6,2.03-3.63,3.37c-1.97,2.58-3.91,5.21-6.04,7.66
		c-1.27,1.46-1.54,2.85-0.77,4.54c-5.39-1.92-10.38-4.74-15.66-6.92c-1.13-0.47-0.31-1.13-0.17-1.73c0,0-0.03,0.02-0.03,0.02
		c1.53,0.16,2.75-0.52,3.88-1.46l-0.03,0.02c1.33-0.02,2.43-0.58,3.39-1.46c0,0-0.03,0.02-0.03,0.02c0.83,0.04,1.62-0.02,1.95-0.98
		c0,0-0.03,0.02-0.03,0.02c1,0.14,1.9,0.04,2.43-0.98c0,0-0.03,0.02-0.03,0.02c0.58,0.11,1.14,0.14,1.48-0.5
		c0,0-0.03,0.02-0.03,0.02c0.83,0.02,1.61-0.03,1.95-0.98c0,0-0.03,0.02-0.03,0.02c1.54,0.18,2.75-0.52,3.88-1.46
		c0,0-0.03,0.02-0.03,0.02c0.83,0.02,1.61-0.03,1.95-0.98c0,0-0.03,0.02-0.03,0.02c0.59,0.11,1.15,0.16,1.48-0.5
		c0,0-0.03,0.02-0.03,0.02c0.98,0.1,1.78-0.27,2.44-0.98l-0.03,0.02c0.83,0.02,1.6-0.06,1.95-0.98c0,0-0.03,0.02-0.03,0.02
		c1.59,0.32,2.74-0.57,3.88-1.46c0,0-0.03,0.02-0.03,0.02C136.87,85.58,137.46,85.57,138.05,85.57z"/>
	<path class="st1" d="M52.7,82.63c0.31-3.82,1.59-7.44,2.21-11.2c0.08-0.47,0.22-0.93,0.29-1.4c0.09-0.64-0.15-1.13-0.84-1.18
		c-1.49-0.11-2.9-0.6-4.48-0.25c-2.07,0.46-4.25,0.41-6.37,0.57c-4.2,0.31-8.38,0.73-12.56,1.1c-0.69,0.06-1.25,0.19-1.46,0.94
		c-0.49-0.41-0.72-0.92-0.64-1.56c0.64-0.03,1.28-0.03,1.91-0.09c5.69-0.52,11.39-1.06,17.08-1.59c-6.57-1.68-13.29-2.8-19.99-3.97
		c-0.02-0.36-0.02-0.71,0.3-0.95c8.08,1.43,16.19,2.72,24.21,4.51c0.95,0.21,1.96,0.3,2.84,0.03c1.76-0.54,3.48-0.06,5.22-0.16
		c-0.91,0.62-2.02,0.12-3.26,0.62c2.67,0.91,5.21,1.14,7.68,1.6c10.19,1.9,20.39,3.73,30.59,5.58c1.57,0.28,3.17,0.44,4.7,0.86
		c1.38,0.38,2.49,0.27,3.48-0.8c0.2-0.22,0.55-0.29,0.83-0.43c0.35,2.64,0.35,2.64-1.96,3.41c-0.07,0.02-0.14,0.06-0.21,0.09
		c-0.29,0.06-0.49,0.21-0.54,0.52l0.04-0.03c-2.4,1.22-3.96,3.39-5.82,5.22c-0.39,0.39,0.25,0.38,0.48,0.49l0.09,0.13
		c-4.32,1.94-7.04,5.8-10.49,8.78c-3.24,2.8-6.2,5.92-9.28,8.9c-0.45-0.37-0.72-0.87-0.95-1.39c0.5,0.02,0.92-0.15,1.29-0.51
		c3.85-3.7,7.7-7.38,11.55-11.08c0.33-0.31,0.75-0.63,0.36-1.54c-6.08,2.16-12.19,4.34-18.3,6.51c-0.1-0.44-0.14-0.85,0.34-1.1
		c6.69-2.41,13.36-4.84,20.06-7.2c1.35-0.48,2.28-1.43,3.31-2.3c2.19-1.84,4.19-3.88,6.3-6.13c-2.35-0.93-4.65-1.11-6.88-1.53
		c-10.42-1.96-20.86-3.83-31.29-5.72c-1.57-0.28-3.16-0.46-4.71-0.83c-0.96-0.23-1.39,0.13-1.56,0.94
		c-0.82,4.05-1.97,8.04-2.48,12.15C53.44,82.63,53.07,82.63,52.7,82.63z M90.07,87.77l-0.15-0.09l-0.02,0.14L90.07,87.77z"/>
	<path class="st1" d="M106.07,98.05c-0.14,0.6-0.96,1.27,0.17,1.73c5.28,2.18,10.27,5,15.66,6.92c0.57,0.35,0.49,0.91,0.46,1.45
		c-3.33-0.92-6.25-2.81-9.43-4.1c-2.44-1-4.78-2.21-7.2-3.27c-1.51-0.67-1.67-0.56-2.19,0.98c-1.54,4.62-3.08,9.24-4.61,13.86
		c-0.72,2.19-0.71,2.18,1.51,3.07c4.75,1.9,9.49,3.8,14.24,5.7c0.38,0.15,0.75,0.27,0.97,0.64c0,0.57-0.29,0.87-0.86,0.91
		c-1.98-1.38-4.31-1.96-6.5-2.85c-9.14-3.71-18.3-7.36-27.47-11.01c-0.72-0.29-1.43-0.74-2.28-0.62c-0.56-0.68-0.25-1.51-0.4-2.26
		c1.88-0.29,3.46-1.4,5.23-1.99c0.66-0.22,1.25-0.66,2-0.56c0,0,0.1,0.13,0.1,0.13c-0.63,0.94-1.73,1.03-2.64,1.48
		c-1.09,0.53-2.37,0.78-3.21,1.74c0.42,0.67,0.98,0.82,1.48,1.02c4.8,1.92,9.6,3.83,14.41,5.72c1.63,0.64,1.68,0.6,2.26-1.19
		c1.44-4.38,2.84-8.77,4.27-13.15c0.2-0.61,0.36-1.22,0.24-1.87c0.19-0.05,0.28-0.18,0.17-0.3c-0.11-0.12-0.25-0.03-0.31,0.16
		c-1.83,0.19-3.27,1.63-5.18,1.57l-0.09-0.12C99.83,100.27,102.76,98.7,106.07,98.05z"/>
	<path class="st0" d="M70.69,94.36c6.11-2.17,12.22-4.35,18.3-6.51c0.4,0.9-0.03,1.22-0.36,1.54c-3.84,3.7-7.7,7.39-11.55,11.08
		c-0.37,0.36-0.78,0.53-1.29,0.51c-1.38-1.61-2.77-3.21-4.14-4.82C71.21,95.63,70.6,95.18,70.69,94.36z"/>
	<path class="st0" d="M27.84,64.01c6.71,1.17,13.43,2.28,19.99,3.97c-5.69,0.53-11.39,1.06-17.08,1.59
		c-0.64,0.06-1.28,0.06-1.91,0.09C27.66,67.92,26.66,66.16,27.84,64.01z"/>
	<path class="st1" d="M138.05,85.57c-0.59,0.01-1.18,0.02-1.77,0.02c0.32-1.12,1.36-0.95,2.16-1.21
		C138.73,84.91,138.68,85.33,138.05,85.57z"/>
	<path class="st1" d="M107.17,41.58c-0.32,0.47-0.48,1.09-1.14,1.25l0.03,0.02c0.23-1.28-0.96-0.95-1.52-1.35
		C105.43,41.26,106.3,41.32,107.17,41.58z"/>
	<path class="st1" d="M93.56,62.56c0.24,0.03,0.49,0.01,0.71,0.09c2.09,0.75,2.28,0.58,3.28-1.31c2.39-4.51,4.37-9.21,6.4-13.89
		c0.09-0.2,0.24-0.38,0.42-0.65c0.38,0.89-0.01,1.45-0.26,2.02c-1.96,4.63-3.95,9.25-5.9,13.88c-0.34,0.81-0.73,1.57-1.28,2.25
		l0.03-0.03c-2.07,0-4.14,0-6.2,0c1.11-0.74,2.41-0.16,3.63-0.63c-0.29-0.65-0.54-1.2-0.79-1.76
		C93.59,62.53,93.56,62.56,93.56,62.56z M96.2,63.6c0.07,0.09,0.12,0.26,0.2,0.27c0.11,0.01,0.23-0.09,0.35-0.14
		c-0.07-0.09-0.12-0.26-0.2-0.27C96.44,63.45,96.32,63.55,96.2,63.6z"/>
	<path class="st1" d="M85.38,106.65c1.76-1.19,3.69-1.97,5.76-2.4c0,0,0.1,0.13,0.1,0.13c-1.67,1.4-3.64,2.07-5.76,2.4L85.38,106.65
		z"/>
	<path class="st1" d="M33.33,58.48c-0.71,0.9-1.64,1.38-2.76,1.49C31.27,59.07,32.33,58.81,33.33,58.48z"/>
	<path class="st1" d="M91.14,104.25c1.13-0.86,2.33-1.53,3.81-1.47l0.09,0.11c-1.12,0.88-2.33,1.5-3.8,1.5L91.14,104.25z"/>
	<path class="st1" d="M136.32,85.57c-1.14,0.89-2.28,1.77-3.88,1.46C133.48,85.86,134.79,85.42,136.32,85.57z"/>
	<path class="st1" d="M124.8,90.37c-1.12,0.94-2.33,1.64-3.88,1.46C122.03,90.86,123.27,90.23,124.8,90.37z"/>
	<path class="st1" d="M109.92,96.61c-1.12,0.94-2.34,1.62-3.88,1.46C107.14,97.08,108.39,96.48,109.92,96.61z"/>
	<path class="st1" d="M61.9,67.2c1.45-0.48,2.9-0.29,4.36,0C64.81,67.2,63.36,67.2,61.9,67.2z"/>
	<path class="st1" d="M113.28,95.17c-0.96,0.88-2.06,1.44-3.39,1.46C110.68,95.37,111.91,95.1,113.28,95.17z"/>
	<path class="st1" d="M73.46,66c1.4,0,2.79,0,4.19,0c0,0.07,0.01,0.14,0.01,0.21c-1.39,0-2.78,0-4.17,0
		C73.49,66.14,73.48,66.07,73.46,66z"/>
	<path class="st1" d="M79.29,65.52c1.38,0,2.77,0,4.15,0C82.05,66.04,80.65,65.78,79.29,65.52z"/>
	<path class="st1" d="M67.75,66.46c1.39,0,2.78,0,4.17,0C70.53,66.98,69.13,66.78,67.75,66.46z"/>
	<path class="st1" d="M89.12,65.3c-1.24,0-2.48,0-3.72,0C86.67,64.79,87.95,65.04,89.12,65.3z"/>
	<path class="st1" d="M80.61,51.99c0.85,0.19,1.41,0.78,1.91,1.44l0.03-0.03c-1.06,0.08-1.73-0.35-1.91-1.44L80.61,51.99z"/>
	<path class="st1" d="M58.07,34.21c0.88,0.16,1.48,0.7,1.91,1.45l0,0c-1.04,0.06-1.68-0.42-1.94-1.43L58.07,34.21z"/>
	<path class="st1" d="M99.37,83.7c-0.8,0.76-1.77,1.04-2.85,0.99c0,0-0.09-0.12-0.09-0.12c0.8-0.79,1.77-1.06,2.87-0.97L99.37,83.7z
		"/>
	<path class="st1" d="M71.49,44.79c0.87,0.18,1.42,0.77,1.91,1.44l0.03-0.03c-1.06,0.08-1.73-0.36-1.91-1.44
		C71.52,44.76,71.49,44.79,71.49,44.79z"/>
	<path class="st1" d="M73.89,46.71c0.87,0.17,1.44,0.74,1.92,1.44l0.03-0.03c-1.05,0.07-1.72-0.36-1.92-1.44
		C73.92,46.68,73.89,46.71,73.89,46.71z"/>
	<path class="st1" d="M66.26,41.41C66,41.28,65.5,41.53,65.6,41c0.08-0.46,0.48-0.62,0.91-0.54c0.2,0.04,0.49,0.23,0.51,0.38
		C67.12,41.48,66.58,41.32,66.26,41.41z"/>
	<path class="st1" d="M130.56,87.97c-0.66,0.71-1.45,1.08-2.44,0.98C128.65,87.91,129.56,87.83,130.56,87.97z"/>
	<path class="st1" d="M117.59,93.25c-0.53,1.02-1.43,1.12-2.43,0.98C115.81,93.51,116.6,93.13,117.59,93.25z"/>
	<path class="st1" d="M105.57,44.29c0.06,0.66-0.06,1.25-0.72,1.78c-0.21-0.85,0.12-1.36,0.75-1.76
		C105.6,44.32,105.57,44.29,105.57,44.29z"/>
	<path class="st1" d="M132.47,87.01c-0.35,0.93-1.12,1.01-1.95,0.98C130.85,87.02,131.64,86.97,132.47,87.01z"/>
	<path class="st1" d="M126.71,89.41c-0.34,0.95-1.12,1.01-1.95,0.98C125.09,89.43,125.88,89.38,126.71,89.41z"/>
	<path class="st1" d="M120.95,91.81c-0.34,0.95-1.13,1-1.95,0.98C119.34,91.85,120.13,91.79,120.95,91.81z"/>
	<path class="st1" d="M115.19,94.21c-0.33,0.97-1.12,1.02-1.95,0.98C113.59,94.26,114.37,94.19,115.19,94.21z"/>
	<path class="st1" d="M94.95,102.78c0.43-0.76,1.14-0.96,1.95-0.93c0,0,0.09,0.12,0.09,0.11c-0.43,0.77-1.15,0.93-1.95,0.92
		L94.95,102.78z"/>
	<path class="st1" d="M61.42,37.1c-0.56-0.08-0.96-0.32-0.97-0.95c0,0,0.02-0.02,0.02-0.02C61.05,36.18,61.45,36.42,61.42,37.1
		C61.42,37.09,61.42,37.1,61.42,37.1z"/>
	<path class="st1" d="M62.43,37.51c0.61,0.04,0.91,0.38,0.96,0.97l-0.09,0.11c-0.62,0.02-0.92-0.32-1.02-0.9L62.43,37.51z"/>
	<path class="st1" d="M70.55,44.28c-0.64,0-0.74-0.53-0.95-0.96l-0.03,0.03c0.38,0.26,1.06,0.22,0.95,0.97L70.55,44.28z"/>
	<path class="st1" d="M76.29,48.63c0.56,0.08,0.98,0.3,0.95,0.97l0.03-0.04c-0.58-0.06-0.96-0.32-0.95-0.96
		C76.31,48.6,76.29,48.63,76.29,48.63z"/>
	<path class="st1" d="M79.67,51.48c-0.57-0.07-0.95-0.33-0.95-0.96l-0.03,0.03c0.56,0.08,0.99,0.3,0.95,0.97
		C79.64,51.52,79.67,51.48,79.67,51.48z"/>
	<path class="st1" d="M83.99,54.84c-0.59-0.05-0.98-0.3-0.95-0.96c0,0-0.03,0.03-0.03,0.03c0.55,0.09,0.95,0.33,0.95,0.96
		L83.99,54.84z"/>
	<path class="st1" d="M86.39,56.76c-0.58-0.06-0.96-0.32-0.95-0.96l-0.03,0.03c0.56,0.09,0.97,0.31,0.95,0.96L86.39,56.76z"/>
	<path class="st1" d="M88.79,58.68c-0.56-0.07-0.95-0.32-0.95-0.96c0,0-0.03,0.03-0.03,0.03c0.56,0.08,0.96,0.32,0.95,0.97
		C88.76,58.72,88.79,58.68,88.79,58.68z"/>
	<path class="st1" d="M90.2,59.68c0.58,0.06,0.98,0.31,0.95,0.97l0.03-0.04c-0.55-0.09-0.94-0.34-0.95-0.96
		C90.24,59.64,90.2,59.68,90.2,59.68z"/>
	<path class="st1" d="M93.11,62.04c-0.59-0.05-0.98-0.3-0.95-0.97c0,0-0.03,0.04-0.03,0.04c0.54,0.1,0.93,0.35,0.95,0.96
		L93.11,62.04z"/>
	<path class="st1" d="M106.03,42.83c0.02,0.54,0.15,1.12-0.47,1.46c0,0,0.03,0.03,0.03,0.03c0-0.54-0.03-1.08,0.46-1.47
		C106.06,42.86,106.03,42.83,106.03,42.83z"/>
	<path class="st1" d="M119.04,92.77c-0.33,0.64-0.89,0.61-1.48,0.5C117.88,92.59,118.45,92.67,119.04,92.77z"/>
	<path class="st1" d="M100.8,83.21c-0.34,0.56-0.89,0.53-1.43,0.49c0,0-0.07-0.1-0.07-0.1c0.32-0.64,0.9-0.5,1.44-0.48L100.8,83.21z
		"/>
	<path class="st1" d="M128.16,88.93c-0.33,0.66-0.89,0.61-1.48,0.5C127.01,88.78,127.57,88.82,128.16,88.93z"/>
	<path class="st1" d="M103.23,82.28c-0.34,0.58-0.9,0.5-1.44,0.49c0,0-0.09-0.11-0.08-0.11c0.33-0.6,0.89-0.5,1.43-0.49
		L103.23,82.28z"/>
	<path class="st1" d="M62.28,37.69c-0.38-0.06-0.73-0.17-0.86-0.59c0,0,0.01-0.01,0.01-0.01c0.44-0.1,0.77,0.04,1.01,0.42
		C62.43,37.51,62.28,37.69,62.28,37.69z"/>
	<path class="st1" d="M63.39,38.48c0.39,0.03,0.72,0.16,0.89,0.55L64.32,39c-0.44,0.1-0.8,0.03-1.02-0.41
		C63.3,38.59,63.39,38.48,63.39,38.48z"/>
	<path class="st1" d="M68.14,42.38c0.44-0.07,0.76,0.07,0.95,0.49c0,0,0.03-0.03,0.03-0.03C68.67,42.93,68.32,42.84,68.14,42.38
		L68.14,42.38z"/>
	<path class="st1" d="M70.52,44.32c0.44-0.09,0.78,0.03,0.97,0.47c0,0,0.03-0.04,0.03-0.04c-0.44,0.09-0.79-0.02-0.97-0.47
		C70.55,44.28,70.52,44.32,70.52,44.32z"/>
	<path class="st1" d="M77.24,49.6c0.43-0.06,0.77,0.05,0.97,0.47c0,0,0.03-0.03,0.03-0.03c-0.44,0.08-0.79-0.03-0.97-0.48
		C77.27,49.56,77.24,49.6,77.24,49.6z"/>
	<path class="st1" d="M80.64,51.95c-0.44,0.08-0.79-0.02-0.97-0.47c0,0-0.03,0.04-0.03,0.04c0.44-0.07,0.78,0.04,0.97,0.47
		C80.61,51.99,80.64,51.95,80.64,51.95z"/>
	<path class="st1" d="M83.96,54.88c0.42-0.05,0.76,0.08,0.96,0.47c0,0,0.03-0.03,0.03-0.03c-0.44,0.08-0.8,0-0.97-0.48
		C83.99,54.84,83.96,54.88,83.96,54.88z"/>
	<path class="st1" d="M86.36,56.8c0.42-0.05,0.76,0.07,0.96,0.47l0.03-0.03c-0.44,0.07-0.79-0.02-0.97-0.48
		C86.39,56.76,86.36,56.8,86.36,56.8z"/>
	<path class="st1" d="M91.15,60.64c0.42-0.05,0.79,0.03,0.98,0.47c0,0,0.03-0.04,0.03-0.04c-0.44,0.07-0.77-0.06-0.98-0.47
		C91.18,60.61,91.15,60.64,91.15,60.64z"/>
	<path class="st1" d="M89.75,59.16c-0.44,0.07-0.78-0.04-0.97-0.48c0,0-0.03,0.04-0.03,0.04c0.43-0.06,0.77,0.05,0.97,0.47
		L89.75,59.16z"/>
	<path class="st1" d="M101.79,82.77c-0.19,0.46-0.59,0.47-0.99,0.44c0,0-0.06-0.09-0.06-0.08c0.15-0.52,0.57-0.48,0.97-0.46
		L101.79,82.77z"/>
	<path class="st1" d="M104.16,81.79c0.08,0.07,0.1,0.15,0.05,0.24c-0.33,0.08-0.66,0.17-0.98,0.25c0,0-0.09-0.12-0.09-0.12
		C103.35,81.68,103.73,81.67,104.16,81.79z"/>
	<path class="st1" d="M101.27,68.28c-0.43,0.06-0.76-0.07-0.96-0.47l-0.03,0.03c0.42-0.05,0.77,0.05,0.96,0.47L101.27,68.28z"/>
	<path class="st1" d="M98.87,66.36c-0.43,0.06-0.77-0.05-0.96-0.47c0,0-0.03,0.03-0.03,0.03c0.42-0.05,0.77,0.05,0.96,0.47
		L98.87,66.36z"/>
	<path class="st1" d="M64.28,39.03c0.11,0.08,0.21,0.15,0.32,0.23c-0.36,0.2-0.3-0.05-0.28-0.26C64.32,39,64.28,39.03,64.28,39.03z"
		/>
	<path class="st1" d="M68.14,42.38c-0.11-0.06-0.22-0.12-0.34-0.18c0.07-0.05,0.14-0.11,0.21-0.16
		C68.06,42.15,68.1,42.26,68.14,42.38C68.14,42.38,68.14,42.38,68.14,42.38z"/>
	<path class="st1" d="M69.59,43.33c-0.32,0-0.51-0.13-0.48-0.48c0,0-0.03,0.03-0.03,0.03c0.29,0.03,0.46,0.18,0.48,0.48
		C69.57,43.35,69.59,43.33,69.59,43.33z"/>
	<path class="st1" d="M73.4,46.23c0.26,0.06,0.44,0.21,0.49,0.48c0,0,0.03-0.03,0.03-0.03c-0.31-0.01-0.51-0.14-0.48-0.48
		C73.43,46.2,73.4,46.23,73.4,46.23z"/>
	<path class="st1" d="M75.8,48.15c0.27,0.05,0.45,0.19,0.48,0.48c0,0,0.03-0.03,0.03-0.03c-0.32-0.01-0.51-0.13-0.48-0.48
		C75.84,48.12,75.8,48.15,75.8,48.15z"/>
	<path class="st1" d="M78.71,50.52c-0.32,0-0.51-0.13-0.48-0.48c0,0-0.03,0.03-0.03,0.03c0.29,0.03,0.46,0.18,0.48,0.48
		C78.69,50.55,78.71,50.52,78.71,50.52z"/>
	<path class="st1" d="M82.52,53.43c0.25,0.07,0.43,0.22,0.48,0.49c0,0,0.03-0.03,0.03-0.03c-0.3-0.02-0.5-0.14-0.48-0.48
		C82.55,53.4,82.52,53.43,82.52,53.43z"/>
	<path class="st1" d="M85.44,55.8c-0.31-0.01-0.51-0.14-0.48-0.48c0,0-0.03,0.03-0.03,0.03c0.26,0.06,0.44,0.21,0.48,0.49
		C85.41,55.84,85.44,55.8,85.44,55.8z"/>
	<polygon class="st1" points="36.21,56.91 36.29,57.07 36.1,57.05 	"/>
	<path class="st1" d="M35.4,57.52c-0.05,0.04-0.11,0.11-0.16,0.11c-0.05,0-0.1-0.08-0.14-0.12c0.05-0.04,0.11-0.11,0.16-0.11
		C35.3,57.4,35.35,57.48,35.4,57.52z"/>
	<path class="st1" d="M87.32,57.27c0.28,0.05,0.45,0.19,0.48,0.48c0,0,0.03-0.03,0.03-0.03c-0.32-0.01-0.51-0.14-0.48-0.48
		C87.35,57.24,87.32,57.27,87.32,57.27z"/>
	<path class="st1" d="M34.45,58c-0.05,0.03-0.11,0.11-0.16,0.1c-0.05,0-0.1-0.08-0.14-0.13c0.05-0.04,0.11-0.11,0.16-0.11
		C34.36,57.86,34.4,57.95,34.45,58z"/>
	<path class="st1" d="M59.98,35.66c0.3,0.02,0.47,0.17,0.49,0.47c0,0-0.01,0.01-0.02,0.02C60.14,36.13,59.95,35.99,59.98,35.66
		C59.98,35.66,59.98,35.66,59.98,35.66z"/>
	<path class="st1" d="M97.4,65.43c0.29,0.03,0.49,0.15,0.48,0.48c0,0,0.03-0.03,0.03-0.03c-0.28-0.04-0.45-0.19-0.48-0.48
		C97.43,65.4,97.4,65.43,97.4,65.43z"/>
	<path class="st1" d="M103.65,70.24c0.11,0.06,0.22,0.13,0.34,0.19c-0.34,0.25-0.28-0.05-0.31-0.23L103.65,70.24z"/>
	<path class="st1" d="M103.68,70.2c-0.12-0.04-0.24-0.08-0.36-0.12c0.29-0.34,0.23,0.06,0.32,0.15
		C103.65,70.24,103.68,70.2,103.68,70.2z"/>
	<path class="st1" d="M102.2,69.28c0.21-0.01,0.31,0.06,0.28,0.2c0,0-0.13,0.01-0.15-0.02c-0.05-0.06-0.06-0.14-0.09-0.21
		L102.2,69.28z"/>
	<path class="st1" d="M102.23,69.24c-0.3-0.02-0.47-0.17-0.48-0.48c0,0-0.03,0.03-0.03,0.03c0.29,0.03,0.48,0.16,0.48,0.48
		C102.2,69.28,102.23,69.24,102.23,69.24z"/>
	<path class="st1" d="M93.08,62.07c0.3,0.03,0.5,0.14,0.48,0.48c0,0,0.03-0.03,0.03-0.03c-0.28-0.04-0.44-0.2-0.48-0.49
		C93.11,62.04,93.08,62.07,93.08,62.07z"/>
	<path class="st1" d="M99.83,67.32c-0.3-0.02-0.47-0.17-0.48-0.48c0,0-0.03,0.03-0.03,0.03c0.28,0.03,0.47,0.17,0.48,0.48
		C99.8,67.35,99.83,67.32,99.83,67.32z"/>
	<path class="st1" d="M101.24,68.31c0.28,0.04,0.46,0.18,0.48,0.48c0,0,0.03-0.03,0.03-0.03c-0.31-0.01-0.5-0.15-0.48-0.48
		C101.27,68.28,101.24,68.31,101.24,68.31z"/>
	<path class="st1" d="M89.72,59.19c0.28,0.05,0.46,0.19,0.48,0.48c0,0,0.03-0.03,0.03-0.03c-0.31-0.01-0.5-0.14-0.48-0.48
		C89.75,59.16,89.72,59.19,89.72,59.19z"/>
	<path class="st1" d="M100.31,67.81c-0.28-0.04-0.45-0.19-0.48-0.48c0,0-0.03,0.03-0.03,0.03c0.3,0.02,0.5,0.15,0.48,0.48
		C100.28,67.84,100.31,67.81,100.31,67.81z"/>
	<path class="st1" d="M98.84,66.39c0.27,0.05,0.45,0.19,0.48,0.48c0,0,0.03-0.03,0.03-0.03c-0.31-0.01-0.5-0.15-0.48-0.48
		C98.87,66.36,98.84,66.39,98.84,66.39z"/>
	<path class="st1" d="M58.04,34.23c-0.12-0.06-0.25-0.12-0.37-0.19c0.3-0.35,0.32-0.02,0.4,0.16
		C58.07,34.21,58.04,34.23,58.04,34.23z"/>
	<path class="st1" d="M96.92,64.95c0.28,0.04,0.48,0.17,0.48,0.48c0,0,0.03-0.03,0.03-0.03c-0.31-0.01-0.49-0.15-0.48-0.48
		C96.95,64.92,96.92,64.95,96.92,64.95z"/>
	<path class="st0" d="M104.16,81.79c-0.43-0.12-0.81-0.11-1.02,0.37c-0.54-0.01-1.1-0.1-1.43,0.49c-0.41-0.01-0.82-0.06-0.97,0.46
		c-0.54-0.02-1.12-0.17-1.44,0.48c-1.1-0.09-2.07,0.18-2.87,0.97c-0.22-0.12-0.87-0.11-0.48-0.49c1.86-1.83,3.42-4,5.82-5.22
		c-0.12,0.87,0.38,1.29,1.13,1.5C103.64,80.56,104.17,80.93,104.16,81.79z"/>
	<polygon class="st0" points="90.07,87.77 89.9,87.82 89.92,87.68 	"/>
	<path class="st0" d="M102.27,78.37c-0.1,0.26-0.17,0.55-0.54,0.52C101.79,78.59,101.99,78.43,102.27,78.37z"/>
	<path class="st0" d="M95.04,102.89c0.8,0.01,1.52-0.15,1.95-0.92c1.9,0.06,3.35-1.37,5.18-1.57l0.14,0.14
		c0.11,0.65-0.05,1.26-0.25,1.87c-1.42,4.38-2.83,8.77-4.27,13.15c-0.59,1.79-0.64,1.82-2.26,1.19c-4.81-1.88-9.61-3.8-14.41-5.72
		c-0.5-0.2-1.06-0.35-1.48-1.02c0.84-0.96,2.12-1.21,3.21-1.74c0.91-0.44,2-0.54,2.64-1.48c2.11-0.33,4.09-1,5.76-2.4
		C92.7,104.39,93.92,103.76,95.04,102.89z"/>
	<path class="st0" d="M102.17,100.4c0.06-0.19,0.19-0.28,0.31-0.16c0.11,0.12,0.02,0.25-0.17,0.3
		C102.3,100.54,102.17,100.4,102.17,100.4z"/>
	<path class="st0" d="M96.2,63.6c0.12-0.05,0.24-0.15,0.35-0.14c0.08,0.01,0.13,0.17,0.2,0.27c-0.12,0.05-0.24,0.15-0.35,0.14
		C96.32,63.86,96.26,63.7,96.2,63.6z"/>
</g>
</svg>
