<svg xmlns="http://www.w3.org/2000/svg" xmlns:xlink="http://www.w3.org/1999/xlink" viewBox="0 0 935.23 743.85"><defs><style>.cls-1{fill:url(#linear-gradient);}</style><linearGradient id="linear-gradient" x1="53.15" y1="669.37" x2="870.23" y2="214.37" gradientUnits="userSpaceOnUse"><stop offset="0" stop-color="#ec443a"/><stop offset="0.05" stop-color="#db413e"/><stop offset="0.16" stop-color="#af3a49"/><stop offset="0.31" stop-color="#682f5b"/><stop offset="0.42" stop-color="#2d2569"/></linearGradient></defs><g id="Layer_2" data-name="Layer 2"><g id="Layer_2-2" data-name="Layer 2"><path id="SVGID" class="cls-1" d="M357.33,5.57c-3.24.92-6.58,2-9.78,3.2a147.26,147.26,0,0,0-53.63,34.72A143.33,143.33,0,0,0,265.09,86.3a97.4,97.4,0,0,0-4.56,12.56c-.46,1.42-.87,2.88-1.28,4.29A101.19,101.19,0,0,1,254.68,116L162.12,359.67h0a26,26,0,0,0-13.7,14.48h0a26.72,26.72,0,0,0,10.78,31.43,26,26,0,0,0,34.72-37.27h0l67.25-176.44h0a159.83,159.83,0,0,0,10.91,25c43.63,80.09,89.18,159,132.63,239.3,7.72,14.2,13.7,32.34,12.19,47.87-4.57,47.61-51.89,70.49-100.5,51.4-23.71-9.14-39.93-26.64-54.82-46.6A145.82,145.82,0,1,0,273.5,668c46.23-87.39,206.49-90.5,253.14,3.25,35.54,71.45,126.22,92.28,195.94,53a146.2,146.2,0,0,0,71.81-99.14h0a33.49,33.49,0,0,1,17.45,9.14,49.42,49.42,0,0,1,13,24.58,56.24,56.24,0,1,0,18.59-58.71c-12.52,10.6-30.29,12.57-46.78,8.18h0a139.13,139.13,0,0,0-17-78.39Q652.86,299.82,523.8,71A133.34,133.34,0,0,0,433.53,4a155.48,155.48,0,0,0-35-4,152.86,152.86,0,0,0-41.12,5.66"/></g></g></svg>