<svg xmlns="http://www.w3.org/2000/svg" xmlns:xlink="http://www.w3.org/1999/xlink" width="992.564" height="752.705" viewBox="0 0 992.564 752.705">
  <defs>
    <style>
      .cls-1 {
        fill: #ffce4e;
      }

      .cls-2 {
        fill: #f2f2f2;
      }

      .cls-3 {
        fill: #3f3d56;
      }

      .cls-4, .cls-5 {
        fill: none;
      }

      .cls-4 {
        stroke: #707070;
      }

      .cls-5 {
        stroke: #ffce4e;
        stroke-width: 2px;
      }

      .cls-6 {
        fill: #fff;
      }

      .cls-7 {
        filter: url(#Path_28);
      }
    </style>
    <filter id="Path_28" x="0" y="0" width="992.564" height="752.705" filterUnits="userSpaceOnUse">
      <feOffset dx="10" dy="10" input="SourceAlpha"/>
      <feGaussianBlur stdDeviation="10" result="blur"/>
      <feFlood flood-opacity="0.161"/>
      <feComposite operator="in" in2="blur"/>
      <feComposite in="SourceGraphic"/>
    </filter>
  </defs>
  <g id="Group_10" data-name="Group 10" transform="translate(-147.936 -208.501)">
    <g class="cls-7" transform="matrix(1, 0, 0, 1, 147.94, 208.5)">
      <path id="Path_28-2" data-name="Path 28" class="cls-1" d="M870.834,181.4C764.992,34.111,541.4-25.635,321.506,38.713,205.255,72.731,93.167,140.893,37.619,272.876c-99.3,235.933,109.191,311.284,245.52,335.3,65.921,11.612,128.009,31.119,184.744,57.677,102.073,47.781,282.747,90.12,418.985-108.909C985.616,412.689,941.342,279.505,870.834,181.4Z" transform="translate(8.3 6.99)"/>
    </g>
    <g id="undraw_connected_world_wuay" transform="translate(158.203 211.222)">
      <path id="Path_1" data-name="Path 1" class="cls-2" d="M870.834,181.4C764.992,34.111,541.4-25.635,321.506,38.713,205.255,72.731,93.167,140.893,37.619,272.876c-99.3,235.933,109.191,311.284,245.52,335.3,65.921,11.612,128.009,31.119,184.744,57.677,102.073,47.781,282.747,90.12,418.985-108.909C985.616,412.689,941.342,279.505,870.834,181.4Z" transform="translate(-11.697 -13.011)"/>
      <path id="Path_2" data-name="Path 2" class="cls-3" d="M271.311,257.206a27.251,27.251,0,0,0-1.781-6.82,3.087,3.087,0,0,0-1.569-1.933,3.235,3.235,0,0,0-1.557-.017l-8,1.223a3.065,3.065,0,0,0-1.824.709c-1.041,1.1-.016,2.858-.048,4.369a4.107,4.107,0,0,1-3.182,3.534,12.029,12.029,0,0,1-5.056-.063l-11.179-1.737a18.432,18.432,0,0,0,8.457-5.644c1.471-1.743,2.254-5,.128-5.822a5.22,5.22,0,0,0-1.942-.156c-5.065.039-9.051-4.19-13.793-5.971A15.25,15.25,0,0,0,212.8,244l5.955.287a2.644,2.644,0,0,1,1.586.423c1.305,1.072-.317,3.132-.134,4.811.239,2.182,3.136,2.647,5.319,2.868s4.954,1.995,3.9,3.922c-10.975,3.78-22.143-7.389-33.668-6.014-2.917.348-5.672,1.494-8.52,2.215-17.4,4.4-35.384-7.343-53.157-4.856a67.5,67.5,0,0,0-11.6,3.06c-2.419.794-4.942,1.653-6.7,3.495s-2.426,4.992-.761,6.918a38.936,38.936,0,0,1-13.645-1.3,7.645,7.645,0,0,1,3.93,6.737,80.963,80.963,0,0,0-20.74,6.324,34.937,34.937,0,0,0,4.293,5.718l-9.071,5.828A5.177,5.177,0,0,1,82.659,292c3.178-1.414,5.147-5.071,8.545-5.812,2.226-.486,4.491.425,6.6,1.281s4.433,1.685,6.619,1.043,3.8-3.477,2.41-5.283a113.114,113.114,0,0,1,28.733-4.489,3.6,3.6,0,0,1,2.176.413c1.267.879.933,2.777.865,4.317s1.132,3.564,2.509,2.87c-1.62,1.4-.235,4.048,1.319,5.525s3.427,3.515,2.475,5.436c-.248.5-.669.9-.908,1.408-.705,1.493.414,3.234,1.735,4.226s2.938,1.685,3.855,3.058.5,3.777-1.14,3.969l-4.662-5.92a12.137,12.137,0,0,0-3.149,5.968,12.523,12.523,0,0,1,1.549,17.13c-2.115,2.485-5.123,3.995-7.748,5.933s-5.054,4.7-5.048,7.962c.011,5.638-.449,10.876,1.663,16.1a248.047,248.047,0,0,0,13.466,28.1c1.332,2.383,3.054,4.994,5.753,5.4q-5.116-12.455-9.211-25.3c1.778.007,3.833.148,4.875,1.589.863,1.193.678,2.815.946,4.262a13.2,13.2,0,0,0,1.684,3.958l16.287,29.013c1.35,2.405,2.9,4.987,5.479,5.961,1.65.623,3.559.505,5.077,1.4,1.19.7,1.992,1.95,3.205,2.612,3.431,1.872,8.2-1.718,11.409.517a32.1,32.1,0,0,1,2.345,2.386c2.961,2.564,7.819.849,11.238,2.762,2.2,1.233,3.345,3.7,4.52,5.933,2.944,5.6,7.707,11.081,14.015,11.527,1.982.14,4.006-.236,5.943.205s3.844,2.131,3.533,4.093c-.533,3.364,1.129,7.047.683,10.423-.813,6.15-9.536,8.853-10.286,15.011a34.838,34.838,0,0,1-.228,4.06c-.393,1.618-1.608,2.935-2.04,4.542-.818,3.047,1.365,6.079,3.763,8.129s5.259,3.818,6.57,6.687c1.386,3.033.705,6.569,1.156,9.873.984,7.213,7.214,12.56,13.625,16.008,1.953,1.05,4.051,2.067,5.315,3.89,1.65,2.378,1.486,5.514,2.037,8.356,1.35,6.96,7.209,12.7,7.375,19.783.118,5.038-2.682,9.608-4.355,14.361a33.492,33.492,0,0,0,2.735,27.777,44.478,44.478,0,0,1,3.633,6.4c1.58,4.088,1.067,8.735,2.524,12.868,1.926,5.465,7.217,9.978,6.711,15.75,2.4,4.989,7.707,7.44,13.041,8.925l9.56,2.661a12.282,12.282,0,0,0,5.607.654c1.864-.369,3.643-1.917,3.595-3.816-4.688-1.057-9.526-2.182-13.391-5.038s-6.512-7.944-5.046-12.521c.68-2.122,2.126-4.573.751-6.326-.787-1-2.227-1.266-3.115-2.182-1.385-1.429-.909-3.829.087-5.552s2.435-3.263,2.837-5.212a5.438,5.438,0,0,0-2.549-5.658,13.518,13.518,0,0,0,4.732-3.036c1.244-1.421,1.819-3.612.84-5.227,2.907.369,6.339.549,8.247-1.674,1.524-1.776,1.419-4.43.817-6.691s-1.62-4.457-1.651-6.8A123.859,123.859,0,0,0,315.3,567.3a13.03,13.03,0,0,0-6.109-7.651c3.02-.511,5.772-4.127,6.726-7.038a18.107,18.107,0,0,0,.121-9.087,4.876,4.876,0,0,1-.09-2.381,4.64,4.64,0,0,1,2.39-2.311l14.991-8.61a8.73,8.73,0,0,0,2.4-1.77c1.571-1.845,1.338-4.63.534-6.915s-2.092-4.435-2.4-6.838c-.927-7.187,6.767-12.343,9.363-19.109a28.794,28.794,0,0,0,1.424-8.378c.212-3.047.227-6.586-2.112-8.55-2.243-1.882-5.747-1.462-8.093-3.213-2.151-1.605-2.894-4.723-5.244-6.019-2.134-1.177-4.811-.429-7.185-.982-4.18-.975-6.81-5.792-11.079-6.238-2.409-.252-5.134.926-7.108-.477-1.739-1.236-1.809-3.72-2.14-5.828a16.277,16.277,0,0,0-13.137-13.179c-2.483-.4-5.186-.247-7.3-1.612-2.139-1.382-3.12-3.969-4.8-5.883-2.708-3.084-6.974-4.18-10.969-5.119l-16.252-3.821c-2.885-.678-6.6-1.038-8.152,1.489a11.68,11.68,0,0,0-.964,3.033,9.393,9.393,0,0,1-8.833,6.648,10.446,10.446,0,0,0-6.16-4.766c-1.648-.459-3.412-.51-4.984-1.186a7,7,0,0,1-3.038-9.711,8.714,8.714,0,0,0-1.489-10.482c-2.764-2.481-6.762-3.081-10.468-2.833-.971-2.118.652-4.507,2.4-6.047s3.873-3.052,4.253-5.351c.6-3.615-4.014-6.361-7.516-5.283s-5.738,4.48-7.216,7.834a23.063,23.063,0,0,1-2.906,5.573c-1.337,1.622-3.491,2.784-5.528,2.263-2.884-.737-4-4.164-4.636-7.071-.856-3.9-1.718-7.856-1.538-11.846s1.524-8.086,4.467-10.787c4.794-4.4,12.149-3.97,18.619-3.268a4.729,4.729,0,0,1,.485-6.246,7.1,7.1,0,0,1,6.436-1.581,8.87,8.87,0,0,1,4.986,2.981c1.839,2.242,2.361,5.268,3.751,7.813s4.515,4.715,7.072,3.35c2.209-1.179,2.56-4.243,2.01-6.686s-1.718-4.819-1.518-7.315c.38-4.763,5.318-7.63,9.675-9.592s9.346-4.6,10.037-9.328a8.5,8.5,0,0,1,.517-2.711,5.318,5.318,0,0,1,1.951-1.835c12.716-8.4,25.644-16.91,40.178-21.5.756-.239.845.027,1.616-.161,1.078-.623.364-2.348-.67-3.042s-2.416-1.227-2.678-2.445c-.193-.9.335-1.774.472-2.679a3.345,3.345,0,0,0-4.392-3.39c-1.167-1.546,1.143-3.343,3.011-3.857a81.76,81.76,0,0,1,17.176-2.806,3.094,3.094,0,0,1,1.954.332c.976.676.851,2.226.16,3.191a18.771,18.771,0,0,1-2.629,2.386,7.175,7.175,0,0,0-1.861,7.217c3.032,1.543,6.329,3.13,9.688,2.587s6.34-4.317,4.761-7.331c-1.47-2.806-5.886-3.44-6.645-6.515-.889-3.6,4.209-6.8,3.061-10.332-.5-1.545-2.043-2.454-3.224-3.57a9.686,9.686,0,0,1-2.12-10.741,12.22,12.22,0,0,1-10.718-3.354c-2.564-2.587-4.609-6.668-8.249-6.553-3.341.106-6.218,4-9.342,2.815-.768-.293-1.579-.888-2.323-.539a1.92,1.92,0,0,0-.867,1.439c-.794,3.8.572,8.119-1.5,11.4-2.251,3.569-7.457,4.064-10.186,7.282-1.481,1.747-2.055,4.1-3.417,5.943s-4.251,3.013-5.885,1.408a8.112,8.112,0,0,0-2.2-9.864,21.645,21.645,0,0,0-4.867-2.368,28.866,28.866,0,0,1-5.438-3.031,5.357,5.357,0,0,1-2-2.136,4.868,4.868,0,0,1,.136-3.378,13.811,13.811,0,0,1,10.991-9.11c2.176-.3,4.708-.192,6.147-1.849.762-.877,1.162-2.2,2.267-2.559a3.344,3.344,0,0,1,2.093.258l8.12,2.858a5.7,5.7,0,0,0,2.893.478,1.961,1.961,0,0,0,1.7-2.061c-.259-1.349-2.334-2-2.146-3.356a2.24,2.24,0,0,1,.68-1.142,29.031,29.031,0,0,1,23.026-9.093c1.025,1.683-.6,3.677-1.945,5.114s-2.433,4-.8,5.111a4.472,4.472,0,0,0,2.162.487,18.878,18.878,0,0,1,5.755,1.746q4.209,1.832,8.257,4.008a10.468,10.468,0,0,1,.209-5.317c.674-1.664,2.591-2.968,4.265-2.32,1.613.624,2.441,2.761,4.16,2.956,2.293.261,3.2-3.126,2.24-5.226s-2.854-3.857-3.012-6.16c-.107-1.553.484-3.479-.756-4.42a3.377,3.377,0,0,0-1.464-.513l-30.977-5.7c-1.84-.339-4.5-.079-4.579,1.79-.046,1.043.886,2.075.474,3.034-.44,1.024-1.887.93-2.941,1.292-1.635.562-2.456,2.5-2.3,4.225a11.757,11.757,0,0,0,1.94,4.762C276.376,258.2,273.325,258.049,271.311,257.206Z" transform="translate(-25.821 -59.679)"/>
      <path id="Path_3" data-name="Path 3" class="cls-3" d="M287.181,228.918a10.031,10.031,0,0,0-11.019,3.3,2.207,2.207,0,0,0-.511,2.325c.612,1.043,2.172.631,3.322.258a8.361,8.361,0,0,1,5.247-.125c1.08.371,2.046,1.026,3.131,1.383a3.153,3.153,0,0,0,3.214-.47,4.185,4.185,0,0,0,.792-3,2.415,2.415,0,0,0-.615-1.985,3.154,3.154,0,0,0-1.423-.421,4.9,4.9,0,0,1-2.869-1.676" transform="translate(-66.408 -57.687)"/>
      <path id="Path_4" data-name="Path 4" class="cls-3" d="M303.633,225.126a2.552,2.552,0,0,0-2.466,3.594,10.344,10.344,0,0,0,4.124.269,3.525,3.525,0,0,0,2.882-2.643,6.636,6.636,0,0,1-4.7-.9" transform="translate(-71.69 -57.005)"/>
      <path id="Path_5" data-name="Path 5" class="cls-3" d="M348.853,217.689a47.436,47.436,0,0,0-10.575,3.592,7.945,7.945,0,0,1,5.074,7.98,4.156,4.156,0,0,0,.048,1.973c.388.942,1.514,1.295,2.5,1.536a16.5,16.5,0,0,0,5.49.7,5.593,5.593,0,0,0,4.544-2.777,19.793,19.793,0,0,1,.945-2.234c2.372-3.612,9.417.755,11.963-2.735.9-1.23.815-3.081,1.984-4.055a4.457,4.457,0,0,1,2.04-.778,143.234,143.234,0,0,1,15.494-2.207c2.464-.214,5.676-1.1,5.7-3.573a42.918,42.918,0,0,0-27.377,3.683c-3.052,1.529-7.088,4.744-10.028,2.717-1.1-.759-1.046-2.8-2.561-3.655C352.547,216.985,350.5,217.34,348.853,217.689Z" transform="translate(-79.434 -54.762)"/>
      <path id="Path_6" data-name="Path 6" class="cls-3" d="M389.516,223.244l4.357.837A5.646,5.646,0,0,0,388,230.2c4.08,1.363,8.529.037,12.827.218s9.3,3.251,8.565,7.49c-.222,1.282-.962,2.563-.577,3.805A14.163,14.163,0,0,0,410.284,244c.9,1.671.181,3.785-.959,5.3s-2.674,2.732-3.675,4.346c-2.49,4.016-1.075,9.207.408,13.693a12.072,12.072,0,0,0,2.321,4.636c2.2,2.337,5.779,2.54,8.987,2.587,2.335.034,5.009-.081,6.485-1.89,1.927-2.361.58-6.046,1.849-8.817,1.153-2.517,4.089-3.6,6.749-4.363,4.874-1.4,9.841-2.6,14.448-4.715,5.721-2.632,11.069-6.733,17.357-7.072a23.826,23.826,0,0,0,5.272-.37c1.7-.483,3.314-1.953,3.185-3.715-.11-1.506-1.384-2.611-2.379-3.746s-1.777-2.88-.862-4.081l16.483-3.079c-1.168-3.184-2.079-7.378.606-9.45.969-.748,2.266-1.047,3.091-1.951,1.406-1.541.7-4.2-.924-5.506s-3.817-1.615-5.9-1.787a158.171,158.171,0,0,0-21.738.193l-42.467,2.328c-2.85.156-6.14-.082-8.753.89-2.213.823-3.786,2.334-6.316,2.865C398.885,221.285,393.743,220.621,389.516,223.244Z" transform="translate(-89.742 -54.64)"/>
      <path id="Path_7" data-name="Path 7" class="cls-3" d="M487.938,268.356a1.753,1.753,0,0,0-1.268.288,1.6,1.6,0,0,0-.413.978,6.458,6.458,0,0,0,.938,4.623,4.527,4.527,0,0,0,4.144,1.987c1.962-.25,3.408-1.924,5.212-2.741,2.78-1.258,14.586-3.218,6.419-7.631-2.814-1.521-4.633-.178-6.851.823A15.589,15.589,0,0,1,487.938,268.356Z" transform="translate(-110.106 -65.312)"/>
      <path id="Path_8" data-name="Path 8" class="cls-3" d="M578,221.861a4.663,4.663,0,0,0-2.269,1.975,1.993,1.993,0,0,0,.747,2.643,2.975,2.975,0,0,0,1.113.176l3.877.116c1.647.049,3.7.4,4.148,1.987.329,1.179-.407,2.693.481,3.536a2.5,2.5,0,0,0,1.319.514,8.99,8.99,0,0,0,3.907.126c2.821-.757,1.339-2.479,2.227-4.012,1.36-2.346,1.124-.926,3.52-2.27,1.769-.993,4.055-2.794,2.579-5.325C597.08,216.927,581.789,219.971,578,221.861Z" transform="translate(-128.636 -55.749)"/>
      <path id="Path_9" data-name="Path 9" class="cls-3" d="M670.678,219.69l-2.251.3a90.687,90.687,0,0,0-15.073,2.886,25.088,25.088,0,0,0,6.6,1.62,20.279,20.279,0,0,1,3.7.526c2.16.643,4.336,2.3,6.423,1.453,1.294-.527,1.716-1.875,2.788-2.588.74-.493,3.547-1.291,3.861-1.789C679.26,218.075,672.628,219.43,670.678,219.69Z" transform="translate(-144.784 -55.79)"/>
      <path id="Path_10" data-name="Path 10" class="cls-3" d="M684.976,232.166a42.229,42.229,0,0,0-8.309,6.085c-1.058.995-2.138,2.231-2.042,3.68.128,1.925,2.179,3.042,3.956,3.795l7.2,3.047c.873-1.231.074-2.93-.828-4.139s-1.975-2.609-1.576-4.064c.455-1.661,2.48-2.227,4.178-2.513,2.767-.466,10.23-.429,9.333-4.888C695.828,227.916,687.753,230.614,684.976,232.166Z" transform="translate(-149.194 -58.033)"/>
      <path id="Path_11" data-name="Path 11" class="cls-3" d="M685.732,599.964a6.868,6.868,0,0,0,.435,6.053,6.132,6.132,0,0,0,6.295,2.175,11.339,11.339,0,0,0,5.844-3.757,20.128,20.128,0,0,0,3.361-5.155,40.238,40.238,0,0,0,2.491-9.117l2.235-11.733c.5-2.622.48-10.662-4.34-8.043-1.317.716-4.365,6.365-5.745,7.968-2.487,2.888-2.816,5.689-4.125,9.188C690.543,591.924,687.248,595.576,685.732,599.964Z" transform="translate(-151.398 -128.51)"/>
      <path id="Path_12" data-name="Path 12" class="cls-3" d="M1005.234,683.026a35.145,35.145,0,0,1-4.58-2.18,38.607,38.607,0,0,0-2.322,12.654l10.792-6.107c1.624-.919,3.464-2.2,3.429-4.06a1.284,1.284,0,0,0-.6-1.168,1.453,1.453,0,0,0-.756-.089,18.267,18.267,0,0,0-4.569,1.468,5.577,5.577,0,0,1-4.66.025" transform="translate(-216.337 -151.527)"/>
      <path id="Path_13" data-name="Path 13" class="cls-3" d="M1074.3,687.185a23.349,23.349,0,0,0-3.461,1.242c-2.477,1.26-4.161,3.653-6.39,5.313a25.347,25.347,0,0,1-7.22,3.308,1.73,1.73,0,0,0,.4,2.551,5.005,5.005,0,0,0,2.85.641c2.618.058,5.377.083,7.67-1.182a24.188,24.188,0,0,0,3.611-2.866,38.245,38.245,0,0,1,9.089-5.14,10.43,10.43,0,0,0,3.168-1.894c2-1.973,2.144-5.018-.744-5.689C1080.937,682.925,1076.515,686.466,1074.3,687.185Z" transform="translate(-228.466 -152.06)"/>
      <path id="Path_14" data-name="Path 14" class="cls-3" d="M1108.1,665.511a9,9,0,0,0-2.754-7.376c-.03,2.717-.112,5.611-1.64,7.857-1.089,1.6-2.8,2.682-3.989,4.207s-1.722,3.941-.323,5.279a5.241,5.241,0,0,0,3.107,1.07c2.785.328,6.009.511,7.962-1.5,1.066-1.1,1.585-2.725,2.885-3.532a3.512,3.512,0,0,0,1.266-.906c.537-.853-.316-1.978-1.276-2.286s-2.019-.163-2.984-.455-1.85-1.377-1.355-2.256" transform="translate(-237.125 -146.817)"/>
      <path id="Path_15" data-name="Path 15" class="cls-3" d="M1042.772,539.318a12.513,12.513,0,0,1-4.467.264c-2.479-.456-4.409-2.324-6.411-3.857a28.275,28.275,0,0,0-16.522-5.773c-5.439-.1-10.929,1.371-16.271.343.349,1.941,2.01,3.4,3.783,4.263s3.728,1.3,5.509,2.149a13.154,13.154,0,0,1,6.372,6.629,18.71,18.71,0,0,0,1.8,3.965c1.776,2.389,5.142,2.914,8.113,2.719,3.873-.255,7.918-1.369,11.522.074,2.756,1.1,4.729,3.517,7.031,5.393s5.544,3.268,8.187,1.915a13.534,13.534,0,0,1-9.364-13.022c2.592.238,10.058.146,9.656-4.258C1051.371,536.387,1045,538.915,1042.772,539.318Z" transform="translate(-216.496 -120.229)"/>
      <path id="Path_16" data-name="Path 16" class="cls-3" d="M991.162,576.744c.46-2.524,2.977-4.753,2.193-7.2-.542-1.69-2.5-2.524-4.275-2.565s-3.517.487-5.291.536a25.783,25.783,0,0,0-3.464.049c-3.521.579-5.691,4.269-9.01,5.582-2.018.8-4.284.645-6.383,1.2-4.763,1.252-7.777,5.753-11.107,9.382a39.637,39.637,0,0,1-20.119,11.733c-2.708.627-5.62,1.028-7.773,2.787-2.851,2.329-3.552,6.322-4.187,9.949a164.31,164.31,0,0,1-8,29.366l11.311,1.444a15.373,15.373,0,0,0,6.451-.094,18.723,18.723,0,0,0,4.243-2.26,42.361,42.361,0,0,1,16.549-5.974,17.57,17.57,0,0,1,8.847.62c2.78,1.1,5.164,3.6,5.4,6.578a6.949,6.949,0,0,1,6.945,1.689,12.07,12.07,0,0,1,3.316,6.619c.3,1.547.6,3.4,2.032,4.051,1.172.53,2.515-.041,3.8-.143,4.349-.348,7.957,4.722,12.231,3.849,4.584-.936,5.709-7.8,10.181-9.177,2.568-.79,6.171.17,7.4-2.219,1.084-2.106-1.079-4.536-.856-6.894.275-2.9,3.7-4.136,6.339-5.375,9.1-4.271,13.421-16.521,9.011-25.557-2.613-5.353-7.755-9.567-8.7-15.448-.731-4.525,1.053-9.8-1.832-13.362-1.468-1.812-3.953-2.812-4.826-4.974-.55-1.361-.329-2.9-.625-4.342s-1.55-2.941-2.97-2.569c-4.12,1.082-5.435,13.811-7.641,16.9C996.987,585.633,990.1,582.536,991.162,576.744Z" transform="translate(-198.793 -127.286)"/>
      <path id="Path_17" data-name="Path 17" class="cls-3" d="M913.789,547.707a6.634,6.634,0,0,0-4.3-.219c-1.349.564-2.137,2.545-1.054,3.528,8.472-.33,17-.658,25.395.493,9.678,1.326,19.255,4.609,28.975,3.643a147.449,147.449,0,0,0-16.9-3.922l-9.516-1.818a73.558,73.558,0,0,0-7.727-1.194C923.236,547.768,919.127,549.2,913.789,547.707Z" transform="translate(-197.586 -123.809)"/>
      <path id="Path_18" data-name="Path 18" class="cls-3" d="M923.9,507.94c-.7-.059-1.574-.109-1.938.5-.348.578.05,1.341-.137,1.989-.255.885-1.414,1.111-2.328.991a4.46,4.46,0,0,0-2.71.031,2.3,2.3,0,0,0-.888,2.609,6.717,6.717,0,0,0,1.566,2.5,25.505,25.505,0,0,0,4.064,4.076c2.912,2.149,6.856,3.185,8.69,6.3a4.183,4.183,0,0,0,1.161,1.562c.88.558,2.028.133,2.976-.3l3.323-1.518a3.774,3.774,0,0,0,1.553-1.056c.759-1.03.293-2.494-.344-3.6s-1.453-2.258-1.316-3.53c.244-2.268,3.16-3.136,4.359-5.076,1.209-1.956.422-4.477.561-6.772.163-2.684,1.85-6.176-.864-8.181-2.306-1.7-4.511-.13-6.167,1.752C931.97,504.178,930.319,508.477,923.9,507.94Z" transform="translate(-199.215 -113.547)"/>
      <path id="Path_19" data-name="Path 19" class="cls-3" d="M951.308,457.964c1.134,2.172,3.5,3.468,4.736,5.583,1.341,2.293,1.188,5.255,2.642,7.477,1.492,2.28,4.5,3.49,5.332,6.083.914,2.831-1.159,6.272.493,8.746a3.671,3.671,0,0,0,5.385.495,3.95,3.95,0,0,0-.163-5.511c-.978-.892-2.383-1.277-3.2-2.319a4.868,4.868,0,0,1-.829-2.018,13.21,13.21,0,0,1,.208-6.332,2.818,2.818,0,0,0,.159-1.656c-.368-1.069-1.815-1.145-2.831-1.641-2.307-1.126-2.251-4.383-1.848-6.918-.268,1.688-6.282-1.183-6.912-2.139-1.251-1.9-.57-5.564-.818-7.663C950.962,451.45,949.921,455.309,951.308,457.964Z" transform="translate(-206.456 -103.678)"/>
      <path id="Path_20" data-name="Path 20" class="cls-3" d="M873.6,501.644c-1.11-1.242-2.782-2.542-4.27-1.793a2.7,2.7,0,0,0-1,3.333,7.337,7.337,0,0,0,2.421,2.887c3.1,2.558,6.44,4.866,9.146,7.839,4.842,5.32,7.406,12.5,12.671,17.4a7.108,7.108,0,0,0,3.99,2.159c1.534.143,3.256-.839,3.433-2.37.145-1.261-.734-2.389-1.592-3.323-2.045-2.225-4.284-4.273-6.216-6.6a5.545,5.545,0,0,1-1.589-3.318c-.01-1.252,1.132-2.562,2.344-2.252-1.475-.377-2.569-2.834-4.733-3.3-1.809-.386-2.247.734-4.4-.19C879.7,510.363,876.476,504.864,873.6,501.644Z" transform="translate(-189.332 -113.941)"/>
      <path id="Path_21" data-name="Path 21" class="cls-3" d="M991.072,349.147a34,34,0,0,1-3.469-1.239c-3.049-.915-7.083,1.326-6.676,4.483.27,2.1,2.222,3.512,3.3,5.331,1.6,2.7,1.172,6.121.332,9.142a7.15,7.15,0,0,1-1.153,2.6,8.81,8.81,0,0,1-2.733,1.965,36.541,36.541,0,0,0-10.692,9.083,2.617,2.617,0,0,0-.646,1.217c-.145,1.066.926,1.842,1.532,2.731,1.346,1.975.373,4.632.506,7.018a1.984,1.984,0,0,0,.836,1.741c.811.412,1.772-.288,2.212-1.084,1.459-2.643.36-6.886,3.1-8.16.518-.241,1.145-.343,1.49-.8.548-.721.019-1.79.3-2.652.417-1.295,2.188-1.353,3.547-1.3a20.128,20.128,0,0,0,6.915-.921,4.6,4.6,0,0,0,2.289-1.326,4.982,4.982,0,0,0,.582-3.771,51.114,51.114,0,0,0-6.039-18.427c2.4.307,5.02.573,7.094-.68,1.162-.7,2.555-2.8,1.979-4.228C994.763,347.623,993.115,349.524,991.072,349.147Z" transform="translate(-210.319 -82.429)"/>
      <path id="Path_22" data-name="Path 22" class="cls-3" d="M582.063,390.005a9.257,9.257,0,0,1,.065,4.654c-.506,1.486-2.1,2.728-3.6,2.272-1.166-.353-1.839-1.525-2.667-2.419-4.6-4.97-14.99-2.092-17.833-8.241-1.161-2.509-.372-5.516-1.164-8.165a7.267,7.267,0,0,0-7.359-5,15.123,15.123,0,0,0-4.235,1.264,106.784,106.784,0,0,1-28.059,7.018,23.055,23.055,0,0,0-5.391.981c-3.953,1.433-6.654,5.1-8.577,8.838S499.9,399,497.326,402.32c-2.709,3.492-6.5,5.937-10.045,8.582a10.249,10.249,0,0,0-3.314,3.473,10.863,10.863,0,0,0-.665,5.16l.724,21.276c.093,2.737.21,5.571,1.435,8.02,1.529,3.058,4.551,5.061,6.647,7.763a15.2,15.2,0,0,1,3.154,9.71c-.045,1.408-.185,3.074.912,3.959a4.012,4.012,0,0,0,2.243.645l28.78,2.356c5.063.414,10.673,1.1,13.979,4.953,1.56,1.82,2.813,4.438,5.2,4.634a19.32,19.32,0,0,0,3.047-.418c2.586-.2,4.858,1.758,6.292,3.92a17.392,17.392,0,0,1,2.794,11.16c-.235,2.466-1,4.864-1.165,7.336-.627,9.406,7.347,17.579,7.5,27,.091,5.544-2.541,10.725-5.107,15.64,4.141,6.274.75,14.629,2.4,21.963,1.564,6.959,7.366,12.406,8.812,19.39.662,3.2.7,7.132,3.52,8.779a8.023,8.023,0,0,0,3.983.8,52.5,52.5,0,0,0,23.909-5.443c3.486-1.73,7.1-4.313,7.708-8.157.491-3.1-1.081-6.568.519-9.268,1.886-3.182,6.716-2.93,9.49-5.377,4.5-3.969.991-11.54,2.815-17.257,1.639-5.139,7.282-7.869,10.079-12.482a22.182,22.182,0,0,0,2.342-6.348A90.55,90.55,0,0,0,637.7,517.9a97.056,97.056,0,0,1,.732-9.917c3.016-18.735,21.537-31.28,27.551-49.278.574-1.719.844-4.008-.685-4.981a4.379,4.379,0,0,0-2.912-.3l-13.267,1.673a9.133,9.133,0,0,1-4.908-.282c-1.513-.684-2.6-2.6-1.8-4.053,2.253-4.082-2.382-9.239-4.441-13.422a198.059,198.059,0,0,0-19.723-31.986,3.252,3.252,0,0,1-.865-1.877l3.765.125c-1.271-4.561-3.369-9.552-7.8-11.22-2.5-.94-5.262-.615-7.926-.469C597.8,392.325,589.615,391.173,582.063,390.005Z" transform="translate(-109.507 -87.696)"/>
      <path id="Path_23" data-name="Path 23" class="cls-3" d="M611.828,256.671c2,2.12,4.234,4.369,7.123,4.738,5.1.653,8.772-4.624,11.107-9.207a4.5,4.5,0,0,0,4.694,4.162,9.268,9.268,0,0,0,3.531-1.38,69.561,69.561,0,0,1,32.955-8.519,3.559,3.559,0,0,1,2.718-3.912c2.342-.464,4.452,1.561,5.582,3.665s1.835,4.542,3.63,6.117,5.271,1.506,5.98-.774c.681-2.189-1.6-4.056-3.495-5.347s-3.892-3.68-2.616-5.584c9.68-2.143,19.42-4.294,29.326-4.72a12.281,12.281,0,0,0,4.936-.85c1.511-.741,2.711-2.424,2.305-4.057a11.178,11.178,0,0,1-11.665-4.4c13.744-1.134,28.363-2.1,40.543,4.366,1.462,3.138-5.988,5.749-3.995,8.579.636.9,1.909,1.009,3.013,1.029,8.464.157,16.978.311,25.346-.967,3.058-.467,6.147-1.126,9.218-.748,5.115.631,9.489,4.043,14.52,5.156a7.769,7.769,0,0,0,6.07-.723c1.726-1.191,2.468-3.9,1.054-5.452,4.737-4.643,12.6-3.492,18.85-1.269s12.171,5.808,18.785,6.3c4.743.355,9.553-.921,14.24-.11,2.945.51,5.686,1.82,8.565,2.625,5.445,1.523,11.2,1.2,16.857,1.274a118.114,118.114,0,0,1,42.091,8.364,12.514,12.514,0,0,1,4.679,2.765,4.588,4.588,0,0,1,1.045,5.034L914.975,260.8c1.3,2.569,4.68,3.006,7.422,3.892s5.584,3.913,3.936,6.277c-2.97-.946-5.662,2.024-7.162,4.756s-3.329,6-6.442,6.171c-2.787.149-6.159-2.224-7.975-.105a54.387,54.387,0,0,1,6.409,10.245c1.795,3.74,3.073,8.451.647,11.816a3.063,3.063,0,0,1-1.637,1.27c-1.981.5-3.269-1.922-4.69-3.391-1.791-1.851-4.5-2.376-6.923-3.244s-4.979-2.576-5.169-5.145c-.118-1.6.726-3.084,1.347-4.561a17.573,17.573,0,0,0,1.335-7.881,8.952,8.952,0,0,0-2.3-5.938c-1.557-1.515-4.245-2-5.917-.608-.78.647-1.4,1.683-2.418,1.722-1.79.068-3.164-3.051-4.6-1.986a4.892,4.892,0,0,1-.665,3.272c-4.3,3.737-10.9,2.156-16.435,3.476a30.846,30.846,0,0,0-7.5,3.275,4.826,4.826,0,0,0-2.143,1.8,3.318,3.318,0,0,0,1.289,3.958,10.24,10.24,0,0,0,4.252,1.451c6.752,1.279,13.6,3.259,18.934,7.6s8.827,11.507,7.14,18.169l-13.316-12.724q.759,8.014.861,16.072a7.228,7.228,0,0,1-.422,3.091c-.949,2.1-3.522,2.8-5.777,3.265a4.525,4.525,0,0,0-3.474,5.8c.8,2.611,2.8,4.647,4.627,6.675s3.629,4.334,3.868,7.054-1.813,5.787-4.538,5.6c-2.065-.143-3.6-1.992-4.479-3.866s-1.405-3.961-2.729-5.553c-4.007-4.819-13.006-2.754-16.595-7.891a8.117,8.117,0,0,0-1.679,7.725c1.67-1.045,3.956-.074,5.21,1.445s1.846,3.466,2.832,5.172c1.33,2.3,3.445,4.343,3.631,6.994a22.9,22.9,0,0,0,.051,3.008c.33,1.607,1.688,2.76,2.629,4.1,2.191,3.125,2.083,7.418.67,10.964s-3.949,6.508-6.462,9.381a113.141,113.141,0,0,1-14.071,14.171,14.782,14.782,0,0,0-3.994,4.02c-.925,1.662-.972,4,.449,5.26-1.017.051-2.84.551-3.857.6a89.664,89.664,0,0,1-.233-12.267c-4.012-1.927-8.333,3.233-7.815,7.654s3.715,7.969,5.992,11.794c1.665,2.8,2.9,6.058,2.346,9.266s-3.419,6.166-6.661,5.883c-5.158-.45-7.315-7.855-12.423-8.7a2.087,2.087,0,0,0-1.344.133c-.758.416-.89,1.431-.933,2.294-.209,4.24-.39,8.648,1.265,12.557,2.421,5.719,8.676,10.521,7.364,16.591-7.068-3.286-10.743-11.212-12.412-18.826s-1.947-15.607-4.938-22.8c-2.271,2.911-7.045.5-9.12-2.549-1.967-2.9-3.179-6.244-5.087-9.179s-4.833-5.562-8.329-5.723c-3.666-.169-6.846,2.347-9.642,4.724-2.3,1.955-4.66,3.986-6,6.688-1.956,3.932-1.444,8.567-1.538,12.958-.1,4.747-1.108,9.754-4.343,13.229s-9.206,4.685-12.774,1.553c-1.863-1.635-2.765-4.078-3.568-6.422a314.4,314.4,0,0,1-9.66-34.486c-.6,2.664-2.938,6.1-5.173,4.528a4.632,4.632,0,0,1-1.192-1.535c-4.168-7.064-11.886-11.3-19.684-13.841s-16-3.725-23.714-6.517a60.069,60.069,0,0,1-12.3-6.128,9.675,9.675,0,0,0-.591,9.9,7.884,7.884,0,0,0,8.9,3.723c1.712-.547,3.158-1.736,4.857-2.323s3.98-.3,4.723,1.338c.711,1.567-.364,3.462.169,5.1.812,2.492,4.57,2.684,5.884,4.951.978,1.687.173,3.927-1.223,5.289a22.13,22.13,0,0,1-4.963,3.056c-5.529,3.075-9.461,8.323-14.293,12.407s-11.65,7.065-17.409,4.446c1.373-6.951-6.907-12.055-8.431-18.974-.5-2.278-.241-4.7-.957-6.916-1.036-3.214-3.887-5.423-6.226-7.858a30.841,30.841,0,0,1-8.459-22.438c.126-2.86.652-5.766,0-8.554s-2.959-5.485-5.819-5.359c-6.532.288-14.76.774-18.187-4.794-1.223-1.987-1.755-4.9.013-6.42,1.247-1.074,3.089-.973,4.727-.812l14.717,1.448c3.442.339,7.163.618,10.117-1.181s4.234-6.576,1.5-8.693c-2-1.547-5.579-1.463-6.16-3.923-.484-2.048,1.783-4.373.559-6.084-.878-1.227-2.852-.887-4.048.033s-2.064,2.266-3.4,2.962c-2.348,1.222-5.154.059-7.681-.731s-5.914-.858-7.139,1.489c-1.37,2.624,1.216,6.063-.144,8.693-1.8,3.477-7.888,1.5-10.414,4.488-2.9,3.432,1.972,8.549.995,12.933a8.051,8.051,0,0,1-7.932-.446,7.7,7.7,0,0,1-3.329-7.173c.242-1.972,1.27-3.985.581-5.849-.557-1.507-2.07-2.4-3.476-3.181l-14.3-7.9c-1.328,2.463.351,5.517,2.45,7.367s4.729,3.243,6.108,5.678a7.453,7.453,0,0,1-2.8,9.826,1.72,1.72,0,0,1-1.418.247,1.977,1.977,0,0,1-.919-1.236c-2.523-6.457-6.312-12.824-12.369-16.2s-14.76-2.68-18.732,3c-.944,1.35-1.577,2.888-2.4,4.315-4.366,7.581-13.727,11.171-22.473,10.937a4.463,4.463,0,0,1-2.452-.576c-1.413-.976-1.35-3.048-1.133-4.752l.918-7.232c.184-1.452.451-3.057,1.6-3.964,1.62-1.278,3.957-.471,6.021-.5a7.63,7.63,0,0,0,6.925-5.345,8.6,8.6,0,0,0-2.394-8.551c-.946-.888-2.215-2-1.716-3.2a2.647,2.647,0,0,1,1.856-1.25c3.706-1.076,7.622-1.358,11.267-2.628s7.179-3.868,8.042-7.63c.265-1.153.385-2.549,1.42-3.121a4.259,4.259,0,0,1,1.641-.335,7.987,7.987,0,0,0,6.851-8.327c1.747-1.22,4.194-.323,5.883.975s3.181,3.013,5.237,3.573c3.832,1.043,7.534-2.35,11.505-2.365,1.67-.007,3.4.584,4.969.018,1.593-.574,2.544-2.159,3.766-3.33s3.367-1.886,4.5-.624l-.961-7.119a14,14,0,0,0,11.39-2.059l-12.422-4.2a2.7,2.7,0,0,1-1.162-.621c-.9-.972-.006-2.488.728-3.593,1.757-2.644,2.052-7-.837-8.317-1.972-.9-4.235.18-6.128,1.235l-9.066,5.055c-.288,1.723,1.819,2.7,3.125,3.861a5.24,5.24,0,0,1-3.417,9.156,6.53,6.53,0,0,1,1.166,5.535l-6.1.439a2.643,2.643,0,0,1-1.979-.386c-.652-.579-.564-1.595-.715-2.454-.365-2.074-2.4-3.528-4.469-3.9a15.717,15.717,0,0,0-6.246.577,3.728,3.728,0,0,1-2.685-.062,2.681,2.681,0,0,1-1.062-1.341c-.9-2.182-.059-4.746,1.387-6.612a36.685,36.685,0,0,1,5.2-4.783,30.314,30.314,0,0,0,9.013-13.979c3.358-1.407,6.834-3.319,10.192-4.726a31.189,31.189,0,0,1,16.764-3.248l11.372.217c3.367.064,6.825.147,9.938,1.43s5.849,4.06,6.064,7.42a2.279,2.279,0,0,1-.729,2.083,2.687,2.687,0,0,1-1.438.324C616.307,255.778,614.968,256.561,611.828,256.671Z" transform="translate(-115.904 -57.141)"/>
      <path id="Path_24" data-name="Path 24" class="cls-3" d="M520.553,308.738a3.328,3.328,0,0,0,.907-3.347,6.225,6.225,0,0,0-6.445,1.217,10.869,10.869,0,0,0-1.727,2.283c-1.494,2.438-2.816,5.35-1.95,8.075a2.294,2.294,0,0,0,1.05,1.436,2.76,2.76,0,0,0,1.224.192,41.026,41.026,0,0,0,4.925-.3c1-.123,2.169-.406,2.557-1.34.51-1.227-.724-2.616-.364-3.9a4.255,4.255,0,0,1,1.051-1.5,1.99,1.99,0,0,0,.62-1.67c-.145-.6-1.064-.941-1.4-.419" transform="translate(-115.271 -73.567)"/>
      <path id="Path_25" data-name="Path 25" class="cls-3" d="M532.186,295.668a13.779,13.779,0,0,0-4.463-.28,1.945,1.945,0,0,0-.951.216,1.585,1.585,0,0,0-.586.849,4.216,4.216,0,0,0,2.454,5.167,5.272,5.272,0,0,1,1.522.612c1.262.979.457,2.981.7,4.561.268,1.774,1.985,3.263,1.671,5.029-.248,1.391-1.734,2.493-1.495,3.886.251,1.459,2.1,1.9,3.577,2.014a4.5,4.5,0,0,0,2.535-.29,3.925,3.925,0,0,0,1.6-2.316,14.844,14.844,0,0,0,.748-5.589,5.3,5.3,0,0,0-.63-2.467,13.773,13.773,0,0,0-1.473-1.686C534.564,302.082,537.541,297.177,532.186,295.668Z" transform="translate(-118.368 -71.565)"/>
      <circle id="Ellipse_5" data-name="Ellipse 5" class="cls-1" cx="9.486" cy="9.486" r="9.486" transform="translate(517.346 373.492)"/>
      <path id="Path_29" data-name="Path 29" class="cls-4" d="M475.832,380.978"/>
      <path id="Path_30" data-name="Path 30" class="cls-5" d="M618.578,246.006c-111.59,9.42-91.746,136.971-91.746,136.971s170-42.047,259.856,98.527"/>
      <path id="Path_31" data-name="Path 31" class="cls-5" d="M349.748,185.139c113.039,33.332,177.084,199.043,177.084,199.043S373.661,214.848,172.219,246.731"/>
      <path id="Path_32" data-name="Path 32" class="cls-5" d="M525.466,384.182s-199.63-62.092-272.091,66.889"/>
      <circle id="Ellipse_1" data-name="Ellipse 1" class="cls-6" cx="9.486" cy="9.486" r="9.486" transform="translate(160.187 236.73)"/>
      <circle id="Ellipse_2" data-name="Ellipse 2" class="cls-6" cx="9.486" cy="9.486" r="9.486" transform="translate(245.886 439.528)"/>
      <circle id="Ellipse_6" data-name="Ellipse 6" class="cls-6" cx="9.486" cy="9.486" r="9.486" transform="translate(339.963 172.079)"/>
      <circle id="Ellipse_3" data-name="Ellipse 3" class="cls-6" cx="9.486" cy="9.486" r="9.486" transform="translate(609.287 235.421)"/>
      <circle id="Ellipse_4" data-name="Ellipse 4" class="cls-6" cx="9.486" cy="9.486" r="9.486" transform="translate(776.105 472.237)"/>
    </g>
  </g>
</svg>
